<?xml version="1.0" encoding="utf-8"?>
<!DOCTYPE svg PUBLIC "-//W3C//DTD SVG 20010904//EN"
 "http://www.w3.org/TR/2001/REC-SVG-20010904/DTD/svg10.dtd">
<svg version="1.0" xmlns="http://www.w3.org/2000/svg"
 width="225.000000pt" height="225.000000pt" viewBox="0 0 225.000000 225.000000"
 preserveAspectRatio="xMidYMid meet">

<g transform="translate(0.000000,225.000000) scale(0.100000,-0.100000)"
fill="#000000" stroke="none">
<path d="M810 1948 c-29 -15 -56 -39 -75 -69 l-30 -47 -206 -3 -206 -4 -49
-30 c-37 -23 -56 -44 -76 -84 l-28 -55 0 -531 0 -531 27 -55 c21 -40 40 -61
77 -84 l49 -30 809 -3 c528 -2 822 1 847 8 62 16 104 51 133 109 l28 55 0 531
0 531 -27 55 c-30 57 -71 92 -132 109 -20 5 -119 10 -221 10 l-185 1 -30 47
c-20 31 -45 55 -75 70 -43 21 -54 22 -315 22 -261 0 -272 -1 -315 -22z m610
-190 l35 -68 233 0 233 0 24 -25 25 -24 0 -516 0 -516 -25 -24 -24 -25 -796 0
-796 0 -24 25 -25 24 0 516 0 516 25 24 24 25 234 0 233 0 23 48 c12 26 29 57
37 70 l15 22 257 -2 257 -3 35 -67z"/>
<path d="M420 1480 l0 -70 70 0 70 0 0 70 0 70 -70 0 -70 0 0 -70z"/>
<path d="M1040 1536 c-83 -18 -149 -54 -211 -115 -166 -166 -166 -425 0 -592
167 -166 425 -166 592 0 166 167 166 425 0 592 -63 63 -138 102 -225 118 -71
13 -85 13 -156 -3z m194 -151 c53 -22 120 -88 147 -143 17 -35 23 -65 23 -117
0 -86 -27 -146 -89 -204 -61 -56 -107 -74 -190 -74 -83 0 -129 18 -190 74 -62
58 -89 118 -89 204 0 87 27 146 90 205 84 77 195 98 298 55z"/>
</g>
</svg>
