<?xml version="1.0" encoding="utf-8"?>
<!DOCTYPE svg PUBLIC "-//W3C//DTD SVG 20010904//EN"
 "http://www.w3.org/TR/2001/REC-SVG-20010904/DTD/svg10.dtd">
<svg version="1.0" xmlns="http://www.w3.org/2000/svg"
 width="800.000000pt" height="800.000000pt" viewBox="0 0 800.000000 800.000000"
 preserveAspectRatio="xMidYMid meet">

<g transform="translate(0.000000,800.000000) scale(0.100000,-0.100000)"
fill="#000000" stroke="none">
<path d="M3800 7524 c-14 -2 -59 -9 -100 -15 -425 -61 -860 -300 -1151 -632
-238 -272 -393 -601 -461 -977 -18 -101 -18 -499 0 -600 99 -551 391 -1007
837 -1305 124 -83 294 -169 435 -220 52 -19 90 -34 83 -35 -6 0 -76 -11 -155
-24 -791 -135 -1389 -513 -1760 -1112 -281 -454 -439 -1072 -442 -1729 -1
-227 4 -246 83 -318 109 -98 282 -78 370 44 39 53 51 115 51 259 0 65 5 177
11 247 47 572 194 1019 452 1369 74 101 278 299 387 376 239 169 545 291 892
357 385 73 951 73 1336 0 757 -143 1265 -534 1526 -1174 132 -324 199 -679
215 -1135 7 -195 9 -221 30 -263 42 -87 125 -139 221 -140 72 -1 124 17 172
61 87 79 100 160 79 490 -54 847 -295 1478 -740 1945 -352 369 -861 621 -1454
722 -82 14 -154 25 -160 25 -7 1 31 16 83 35 676 245 1143 804 1272 1525 8 48
13 156 13 300 0 235 -6 292 -52 475 -91 368 -309 725 -596 976 -267 233 -586
386 -952 456 -76 14 -466 27 -525 17z m325 -504 c328 -31 620 -163 856 -387
593 -564 593 -1502 0 -2066 -183 -173 -402 -294 -643 -352 -473 -115 -967 18
-1319 352 -593 565 -593 1501 0 2066 259 246 587 381 961 396 19 0 85 -4 145
-9z"/>
</g>
</svg>
